<svg width="24" height="24" viewBox="0 0 24 24" fill="none" xmlns="http://www.w3.org/2000/svg">
  <path d="M12 2C6.48 2 2 6.48 2 12C2 13.96 2.54 15.78 3.44 17.37L2.05 22L6.68 20.61C8.27 21.51 10.09 22.05 12.05 22.05C17.57 22.05 22.05 17.57 22.05 12.05C22.05 6.53 17.52 2 12 2ZM17 15.46C16.91 15.65 16.64 15.79 16.38 15.93C16.12 16.07 14.89 16.68 14.63 16.77C13.71 17.06 13.04 17 12.67 16.85C11.91 16.54 11.18 16.19 10.5 15.75C8.35 14.23 7.03 11.86 6.93 11.71C6.83 11.56 6 10.44 6 9.28C6 8.12 6.61 7.56 6.81 7.33C7.01 7.1 7.24 7.05 7.39 7.05H7.84C7.99 7.05 8.19 7 8.39 7.47C8.59 7.94 9.08 9.1 9.13 9.2C9.18 9.3 9.23 9.45 9.15 9.6C8.65 10.61 8.11 10.57 8.46 11.13C9.46 12.64 10.39 13.38 11.79 14.31C12.04 14.46 12.19 14.46 12.34 14.26C12.49 14.06 12.97 13.49 13.12 13.29C13.27 13.09 13.42 13.14 13.62 13.24C13.82 13.34 15 13.91 15.2 14.01C15.4 14.11 15.55 14.16 15.6 14.26C15.65 14.36 15.65 14.91 15.55 15.46H17Z" fill="white"/>
</svg> 